#Comment line ignore any data following # character 
#Hierarchical Translation and Rotation (.htr) file 
[Header]	
#Header keywords are followed by a single value 
FileType HTR		#Single word string
DataType HTRS		#Translation followed by rotation and scale data
FileVersion 1		#integer
NumSegments 64		#integer
NumFrames 3		#integer
DataFrameRate 30		#integer, data frame rate in this file
EulerRotationOrder ZYX
CalibrationUnits mm
RotationUnits Degrees
GlobalAxisofGravity Y
BoneLengthAxis Y
ScaleFactor 1.00
[SegmentNames&Hierarchy]
#CHILD	PARENT
Pinger_Root GLOBAL
Pelvis Pinger_Root
L_Hip Pelvis
R_Hip Pelvis
Rear_Leg01 Pelvis
Spine1 Pelvis
L_Leg01 L_Hip
L_Leg02 L_Leg01
L_Leg03 L_Leg02
L_Foot L_Leg03
L_Toe1_01 L_Foot
L_Toe2_01 L_Foot
L_Toe3_01 L_Foot
planeAlignerLeft L_Foot
L_Toe1_02 L_Toe1_01
L_Toe1_03 L_Toe1_02
L_Toe2_02 L_Toe2_01
L_Toe2_03 L_Toe2_02
L_Toe3_02 L_Toe3_01
L_Toe3_03 L_Toe3_02
planeLockWeightLeft planeAlignerLeft
R_Leg01 R_Hip
R_Leg02 R_Leg01
R_Leg03 R_Leg02
R_Foot R_Leg03
planeAlignerRight R_Foot
R_Toe1_01 R_Foot
R_Toe2_01 R_Foot
R_Toe3_01 R_Foot
planeLockWeightRight planeAlignerRight
R_Toe1_02 R_Toe1_01
R_Toe1_03 R_Toe1_02
R_Toe2_02 R_Toe2_01
R_Toe2_03 R_Toe2_02
R_Toe3_02 R_Toe3_01
R_Toe3_03 R_Toe3_02
Rear_Leg02 Rear_Leg01
Rear_Leg03 Rear_Leg02
Rear_Leg04 Rear_Leg03
Rear_Foot Rear_Leg04
planeAlignerCenter Rear_Foot
Rear_Toe1_01 Rear_Foot
Rear_Toe2_01 Rear_Foot
Rear_Toe3_01 Rear_Foot
planeLockWeightCenter planeAlignerCenter
Rear_Toe1_02 Rear_Toe1_01
Rear_Toe1_03 Rear_Toe1_02
Rear_Toe2_02 Rear_Toe2_01
Rear_Toe2_03 Rear_Toe2_02
Rear_Toe3_02 Rear_Toe3_01
Rear_Toe3_03 Rear_Toe3_02
Back_Bone Spine1
Head Spine1
Motor_Bone Back_Bone
Ping_Mechanism Back_Bone
BN_LookIK Head
bottomMouth Head
L_Mouth01 Head
L_mouthFront Head
mouthGun Head
R_Mouth01 Head
R_mouthFront Head
TopMouth Head
weapon_bone Head
[BasePosition]
#SegmentName Tx, Ty, Tz, Rx, Ry, Rz, BoneLength
Pinger_Root 0.000000 0.000000 0.000000 -90.000000 0.000000 0.000000 10.000000 
Pelvis 0.000000 0.000000 0.000000 0.000000 0.000000 0.000000 10.000000 
L_Hip 0.000000 0.000000 0.000000 0.000000 0.000000 0.000000 10.000000 
R_Hip 0.000000 0.000000 0.000000 0.000000 0.000000 0.000000 10.000000 
Rear_Leg01 0.000000 0.000000 0.000000 0.000000 0.000000 0.000000 10.000000 
Spine1 0.000000 0.000000 0.000000 0.000000 0.000000 0.000000 10.000000 
L_Leg01 0.000000 0.000000 0.000000 0.000000 0.000000 0.000000 10.000000 
L_Leg02 0.000000 0.000000 0.000000 0.000000 0.000000 0.000000 10.000000 
L_Leg03 0.000000 0.000000 0.000000 0.000000 0.000000 0.000000 10.000000 
L_Foot 0.000000 0.000000 0.000000 0.000000 0.000000 0.000000 10.000000 
L_Toe1_01 0.000000 0.000000 0.000000 0.000000 0.000000 0.000000 10.000000 
L_Toe2_01 0.000000 0.000000 0.000000 0.000000 0.000000 0.000000 10.000000 
L_Toe3_01 0.000000 0.000000 0.000000 0.000000 0.000000 0.000000 10.000000 
planeAlignerLeft 0.000000 0.000000 0.000000 0.000000 0.000000 0.000000 10.000000 
L_Toe1_02 0.000000 0.000000 0.000000 0.000000 0.000000 0.000000 10.000000 
L_Toe1_03 0.000000 0.000000 0.000000 0.000000 0.000000 0.000000 10.000000 
L_Toe2_02 0.000000 0.000000 0.000000 0.000000 0.000000 0.000000 10.000000 
L_Toe2_03 0.000000 0.000000 0.000000 0.000000 0.000000 0.000000 10.000000 
L_Toe3_02 0.000000 0.000000 0.000000 0.000000 0.000000 0.000000 10.000000 
L_Toe3_03 0.000000 0.000000 0.000000 0.000000 0.000000 0.000000 10.000000 
planeLockWeightLeft 0.000000 0.000000 0.000000 0.000000 0.000000 0.000000 10.000000 
R_Leg01 0.000000 0.000000 0.000000 0.000000 0.000000 0.000000 10.000000 
R_Leg02 0.000000 0.000000 0.000000 0.000000 0.000000 0.000000 10.000000 
R_Leg03 0.000000 0.000000 0.000000 0.000000 0.000000 0.000000 10.000000 
R_Foot 0.000000 0.000000 0.000000 0.000000 0.000000 0.000000 10.000000 
planeAlignerRight 0.000000 0.000000 0.000000 0.000000 0.000000 0.000000 10.000000 
R_Toe1_01 0.000000 0.000000 0.000000 0.000000 0.000000 0.000000 10.000000 
R_Toe2_01 0.000000 0.000000 0.000000 0.000000 0.000000 0.000000 10.000000 
R_Toe3_01 0.000000 0.000000 0.000000 0.000000 0.000000 0.000000 10.000000 
planeLockWeightRight 0.000000 0.000000 0.000000 0.000000 0.000000 0.000000 10.000000 
R_Toe1_02 0.000000 0.000000 0.000000 0.000000 0.000000 0.000000 10.000000 
R_Toe1_03 0.000000 0.000000 0.000000 0.000000 0.000000 0.000000 10.000000 
R_Toe2_02 0.000000 0.000000 0.000000 0.000000 0.000000 0.000000 10.000000 
R_Toe2_03 0.000000 0.000000 0.000000 0.000000 0.000000 0.000000 10.000000 
R_Toe3_02 0.000000 0.000000 0.000000 0.000000 0.000000 0.000000 10.000000 
R_Toe3_03 0.000000 0.000000 0.000000 0.000000 0.000000 0.000000 10.000000 
Rear_Leg02 0.000000 0.000000 0.000000 0.000000 0.000000 0.000000 10.000000 
Rear_Leg03 0.000000 0.000000 0.000000 0.000000 0.000000 0.000000 10.000000 
Rear_Leg04 0.000000 0.000000 0.000000 0.000000 0.000000 0.000000 10.000000 
Rear_Foot 0.000000 0.000000 0.000000 0.000000 0.000000 0.000000 10.000000 
planeAlignerCenter 0.000000 0.000000 0.000000 0.000000 0.000000 0.000000 10.000000 
Rear_Toe1_01 0.000000 0.000000 0.000000 0.000000 0.000000 0.000000 10.000000 
Rear_Toe2_01 0.000000 0.000000 0.000000 0.000000 0.000000 0.000000 10.000000 
Rear_Toe3_01 0.000000 0.000000 0.000000 0.000000 0.000000 0.000000 10.000000 
planeLockWeightCenter 0.000000 0.000000 0.000000 0.000000 0.000000 0.000000 10.000000 
Rear_Toe1_02 0.000000 0.000000 0.000000 0.000000 0.000000 0.000000 10.000000 
Rear_Toe1_03 0.000000 0.000000 0.000000 0.000000 0.000000 0.000000 10.000000 
Rear_Toe2_02 0.000000 0.000000 0.000000 0.000000 0.000000 0.000000 10.000000 
Rear_Toe2_03 0.000000 0.000000 0.000000 0.000000 0.000000 0.000000 10.000000 
Rear_Toe3_02 0.000000 0.000000 0.000000 0.000000 0.000000 0.000000 10.000000 
Rear_Toe3_03 0.000000 0.000000 0.000000 0.000000 0.000000 0.000000 10.000000 
Back_Bone 0.000000 0.000000 0.000000 0.000000 0.000000 0.000000 10.000000 
Head 0.000000 0.000000 0.000000 0.000000 0.000000 0.000000 10.000000 
Motor_Bone 0.000000 0.000000 0.000000 0.000000 0.000000 0.000000 10.000000 
Ping_Mechanism 0.000000 0.000000 0.000000 0.000000 0.000000 0.000000 10.000000 
BN_LookIK 0.000000 0.000000 0.000000 0.000000 0.000000 0.000000 10.000000 
bottomMouth 0.000000 0.000000 0.000000 0.000000 0.000000 0.000000 10.000000 
L_Mouth01 0.000000 0.000000 0.000000 0.000000 0.000000 0.000000 10.000000 
L_mouthFront 0.000000 0.000000 0.000000 0.000000 0.000000 0.000000 10.000000 
mouthGun 0.000000 0.000000 0.000000 0.000000 0.000000 0.000000 10.000000 
R_Mouth01 0.000000 0.000000 0.000000 0.000000 0.000000 0.000000 10.000000 
R_mouthFront 0.000000 0.000000 0.000000 0.000000 0.000000 0.000000 10.000000 
TopMouth 0.000000 0.000000 0.000000 0.000000 0.000000 0.000000 10.000000 
weapon_bone 0.000000 0.000000 0.000000 0.000000 0.000000 0.000000 10.000000 
#Beginning of Data. Separated by tabs
#Fr	Tx	Ty	Tz	Rx	Ry	Rz	SF
[Pinger_Root]
46 -0.000020 2500.000000 0.000000 -0.000075 -0.000000 -0.000020 2500.000000
47 -0.000020 2500.000000 0.000000 -0.000075 -0.000000 -0.000020 2500.000000
48 -0.000020 2500.000000 0.000000 -0.000075 -0.000000 -0.000020 2500.000000
[Pelvis]
46 144.268036 1290.780029 4389.770996 -107.210754 -69.109756 111.017632 4577.883301
47 172.264191 1302.257324 4373.503418 -105.880493 -68.219391 108.634811 4566.517090
48 197.310318 1309.477173 4350.817383 -104.473999 -67.651520 106.400223 4547.886719
[L_Hip]
46 5.766392 125.831482 872.656799 176.781082 -80.388649 92.654457 881.701050
47 5.766392 125.831482 872.656799 173.958878 -79.304764 95.710182 881.701050
48 5.766392 125.831482 872.656799 171.422836 -78.076698 98.536743 881.701050
[R_Hip]
46 5.765438 125.836372 -872.654907 5.596637 80.803947 94.455696 881.699829
47 5.765438 125.836372 -872.654907 10.096139 79.990120 98.757652 881.699829
48 5.765438 125.836372 -872.654907 13.973907 79.086990 102.458382 881.699829
[Rear_Leg01]
46 -192.298416 -925.602966 -0.001907 152.163345 -11.710328 -176.957092 945.367432
47 -192.298416 -925.602966 -0.001907 151.143845 -11.401741 -177.341400 945.367432
48 -192.298416 -925.602966 -0.001907 152.813797 -11.598555 -174.958862 945.367432
[Spine1]
46 290.604584 5.007505 0.000477 -3.134395 7.840672 8.190187 290.647736
47 290.604584 5.007505 0.000477 -2.235967 7.185820 6.814368 290.647736
48 290.604584 5.007505 0.000477 -1.568014 6.502993 5.805652 290.647736
[L_Leg01]
46 761.932007 -0.002384 -0.069261 13.542508 -60.248402 -4.168849 761.932068
47 761.932007 -0.002384 -0.069261 7.996661 -58.674412 2.177814 761.932068
48 761.932007 -0.002384 -0.069261 4.560979 -56.927284 6.317926 761.932068
[L_Leg02]
46 1441.140503 -0.000954 -0.000715 2.321775 -0.380540 -135.223083 1441.140503
47 1441.140503 -0.000954 -0.000715 2.044771 -0.391805 -135.101303 1441.140503
48 1441.140503 -0.000954 -0.000715 1.767742 -0.402480 -134.979446 1441.140503
[L_Leg03]
46 1686.963989 -0.000715 -0.000954 -0.004564 0.000872 111.636742 1686.963989
47 1686.963989 -0.000715 -0.000954 0.005193 -0.004405 108.827141 1686.963989
48 1686.963989 -0.000715 -0.000954 0.012183 -0.005346 106.912079 1686.963989
[L_Foot]
46 3041.570068 -30.715107 11.297464 -6.852931 5.394375 46.271492 3041.746094
47 3041.570068 -30.715107 11.297464 -6.896143 5.705647 47.315929 3041.746094
48 3041.570068 -30.715107 11.297464 -6.933657 6.017650 48.360687 3041.746094
[L_Toe1_01]
46 -188.216690 -224.732346 -21.137953 89.161797 -4.295948 -153.923859 293.899567
47 -188.216690 -224.732346 -21.137953 89.362312 -3.446845 -156.953522 293.899567
48 -188.216690 -224.732346 -21.137953 89.610352 -2.659494 -159.127502 293.899567
[L_Toe2_01]
46 200.746536 -219.926590 148.838394 -77.251282 -12.617056 -49.236706 332.896027
47 200.746536 -219.926590 148.838394 -78.825050 -13.692698 -44.992268 332.896027
48 200.746536 -219.926590 148.838394 -80.483826 -14.651302 -40.699818 332.896027
[L_Toe3_01]
46 188.832520 -219.859131 -191.078659 -109.599434 22.165346 -54.126198 347.140900
47 188.832520 -219.859131 -191.078659 -108.536118 25.976339 -50.419601 347.140900
48 188.832520 -219.859131 -191.078659 -107.369888 29.284184 -47.264099 347.140900
[planeAlignerLeft]
46 117.962120 -665.055969 6.063206 171.066818 -89.420204 98.458527 675.463745
47 74.256203 -600.531616 -11.848643 171.085907 -88.969978 98.082664 605.221191
48 37.580959 -547.241699 -26.782629 170.985153 -88.519852 97.826462 549.184021
[L_Toe1_02]
46 413.761139 0.000477 0.000000 0.001387 -25.637489 0.001387 413.761139
47 413.761139 0.000477 0.000000 0.001388 -25.515741 0.001388 413.761139
48 413.761139 0.000477 0.000000 0.001393 -24.781523 0.001393 413.761139
[L_Toe1_03]
46 464.317322 0.000358 -0.000089 0.003255 47.725403 0.003255 464.317322
47 464.317322 0.000358 -0.000089 0.003009 44.094505 0.003009 464.317322
48 464.317322 0.000358 -0.000089 0.002730 39.068462 0.002730 464.317322
[L_Toe2_02]
46 342.235809 -0.000477 0.000238 0.001195 -68.377075 0.001195 342.235809
47 342.235809 -0.000477 0.000238 0.001185 -74.239143 0.001185 342.235809
48 342.235809 -0.000477 0.000238 0.001181 -77.366882 0.001181 342.235809
[L_Toe2_03]
46 420.210846 -0.000715 0.000000 0.009679 76.071671 0.009679 420.210846
47 420.210846 -0.000715 0.000000 0.000000 89.529778 0.003501 420.210846
48 420.210846 -0.000715 0.000000 -179.995895 78.746643 -179.992386 420.210846
[L_Toe3_02]
46 329.270111 0.000954 0.000000 0.001178 -80.415489 0.001178 329.270111
47 329.270111 0.000954 0.000000 0.001176 -82.319901 0.001176 329.270111
48 329.270111 0.000954 0.000000 0.001176 -83.355392 0.001176 329.270111
[L_Toe3_03]
46 439.137451 -0.001907 0.000954 -179.995911 78.700089 -179.992386 439.137451
47 439.137451 -0.001907 0.000954 -179.998428 70.269470 -179.994873 439.137451
48 439.137451 -0.001907 0.000954 179.991211 63.936581 179.998383 439.137451
[planeLockWeightLeft]
46 1000.000000 0.000272 -0.000104 -0.011826 -0.004376 0.005620 1000.000000
47 1000.000000 0.000256 -0.000104 -0.011826 -0.004376 0.005620 1000.000000
48 1000.000000 0.000239 -0.000104 -0.011826 -0.004376 0.005620 1000.000000
[R_Leg01]
46 761.455627 -0.001907 -0.000358 137.379517 -39.424961 53.342064 761.455688
47 761.455627 -0.001907 -0.000358 137.898071 -40.078243 51.942730 761.455688
48 761.455627 -0.001907 -0.000358 138.392593 -39.986633 50.314293 761.455688
[R_Leg02]
46 1441.140625 0.000000 -0.000238 -0.552868 -0.057432 -130.513687 1441.140625
47 1441.140625 0.000000 -0.000238 -0.663981 -0.086400 -132.219818 1441.140625
48 1441.140625 0.000000 -0.000238 -0.774183 -0.118663 -133.925903 1441.140625
[R_Leg03]
46 1686.963989 0.000954 0.001431 0.049441 -0.025873 123.575623 1686.963989
47 1686.963989 0.000954 0.001431 0.055688 -0.028795 125.417763 1686.963989
48 1686.963989 0.000954 0.001431 0.061838 -0.031917 127.259911 1686.963989
[R_Foot]
46 3041.560059 -30.531288 -11.204481 13.558913 -5.514442 59.445698 3041.734131
47 3041.560059 -30.531288 -11.204481 12.462436 -5.748974 59.909180 3041.734131
48 3041.560059 -30.531288 -11.204481 11.363751 -5.974605 60.377235 3041.734131
[planeAlignerRight]
46 -23.084515 -802.524658 -57.980911 -34.413277 -89.403900 -55.983231 804.947510
47 -19.113846 -797.290649 -56.439236 -35.782753 -88.937614 -54.921299 799.514282
48 -17.862879 -790.508728 -59.373417 -36.335899 -88.059021 -54.932018 792.936523
[R_Toe1_01]
46 -188.383347 -224.864899 21.052242 90.637291 -1.590323 -146.724258 294.101532
47 -188.383347 -224.864899 21.052242 90.324677 -2.008162 -147.827881 294.101532
48 -188.383347 -224.864899 21.052242 89.684158 -2.218385 -149.278030 294.101532
[R_Toe2_01]
46 200.637817 -220.002121 -148.787384 -100.718895 1.164443 -54.826855 332.857574
47 200.637817 -220.002121 -148.787384 -100.248749 1.807917 -54.875027 332.857574
48 200.637817 -220.002121 -148.787384 -99.778915 2.451772 -54.917927 332.857574
[R_Toe3_01]
46 188.606735 -220.092957 191.126343 -59.512772 -29.869705 -71.299294 347.192566
47 188.606735 -220.092957 191.126343 -59.855797 -29.600189 -71.087814 347.192566
48 188.606735 -220.092957 191.126343 -60.393429 -28.832308 -71.090439 347.192566
[planeLockWeightRight]
46 1000.000000 0.000305 -0.000433 -0.011823 -0.004379 -0.000027 1000.000000
47 1000.000000 0.000305 -0.000433 -0.011823 -0.004379 -0.000027 1000.000000
48 1000.000000 0.000305 -0.000433 -0.011823 -0.004379 -0.000027 1000.000000
[R_Toe1_02]
46 413.762085 0.000477 -0.000119 0.001387 -25.635052 0.001387 413.762085
47 413.762085 0.000477 -0.000119 0.001385 -25.816376 0.001385 413.762085
48 413.762085 0.000477 -0.000119 0.001384 -25.997702 0.001384 413.762085
[R_Toe1_03]
46 464.317810 0.000000 0.001088 0.003242 47.529579 0.003242 464.317810
47 464.317810 0.000000 0.001088 0.003465 50.384327 0.003465 464.317810
48 464.317810 0.000000 0.001088 0.003722 53.237312 0.003722 464.317810
[R_Toe2_02]
46 342.234741 -0.000954 0.000238 0.001213 -60.816948 0.001213 342.234741
47 342.234741 -0.000954 0.000238 0.001214 -60.358166 0.001214 342.234741
48 342.234741 -0.000954 0.000238 0.001214 -60.255211 0.001214 342.234741
[R_Toe2_03]
46 420.210846 0.000715 -0.000268 -0.004190 62.158321 -0.000588 420.210846
47 420.210846 0.000715 -0.000268 -0.004131 61.400307 -0.000523 420.210846
48 420.210846 0.000715 -0.000268 -0.004119 61.239326 -0.000509 420.210846
[R_Toe3_02]
46 329.270355 -0.000477 -0.000954 -0.002385 -63.784267 -0.002385 329.270355
47 329.270355 -0.000477 -0.000954 -0.002391 -62.700794 -0.002391 329.270355
48 329.270355 -0.000477 -0.000954 -0.002393 -62.174503 -0.002393 329.270355
[R_Toe3_03]
46 439.137939 0.000238 0.001431 0.004908 62.328648 0.004908 439.137939
47 439.137939 0.000238 0.001431 0.004660 60.826004 0.004660 439.137939
48 439.137939 0.000238 0.001431 0.004536 60.007626 0.004536 439.137939
[Rear_Leg02]
46 1162.777710 -0.029802 0.005960 -37.105831 32.179714 -147.032898 1162.777710
47 1162.777710 -0.029802 0.005960 -36.551487 32.251320 -147.157166 1162.777710
48 1162.777710 -0.029802 0.005960 -35.996887 32.323902 -147.280746 1162.777710
[Rear_Leg03]
46 607.192505 -0.013351 -0.073195 0.010172 -0.005717 75.033241 607.192505
47 607.192505 -0.013351 -0.073195 0.010176 -0.005710 74.956406 607.192505
48 607.192505 -0.013351 -0.073195 0.010179 -0.005704 74.879562 607.192505
[Rear_Leg04]
46 995.874512 -0.020504 -0.011921 -0.045736 -0.016630 83.452698 995.874573
47 995.874512 -0.020504 -0.011921 -0.045688 -0.016762 83.122185 995.874573
48 995.874512 -0.020504 -0.011921 -0.045639 -0.016894 82.791702 995.874573
[Rear_Foot]
46 3096.176270 -0.067472 -0.041425 84.722977 45.671532 -94.599838 3096.176270
47 3096.176270 -0.067472 -0.041425 85.031128 46.083920 -93.768501 3096.176270
48 3096.176270 -0.067472 -0.041425 86.482452 46.499973 -92.021500 3096.176270
[planeAlignerCenter]
46 -100.186707 -141.341599 -738.808594 1.141673 -0.001643 179.998322 758.849731
47 -118.950943 -187.018158 -757.676819 1.569525 -0.001637 179.998306 789.429749
48 -114.634857 -172.648575 -783.437317 1.997377 -0.001631 179.998306 810.384277
[Rear_Toe1_01]
46 0.653352 83.966492 -371.173737 3.294651 20.762993 96.437943 380.553192
47 0.653352 83.966492 -371.173737 4.376051 22.534929 97.893196 380.553192
48 0.653352 83.966492 -371.173737 4.688491 24.747658 97.852943 380.553192
[Rear_Toe2_01]
46 178.200760 -294.826019 -362.060547 -4.977139 45.194408 -81.998154 499.765686
47 178.200760 -294.826019 -362.060547 -5.927841 43.929153 -83.742706 499.765686
48 178.200760 -294.826019 -362.060547 -6.636372 46.716373 -83.755493 499.765686
[Rear_Toe3_01]
46 -153.359680 -308.780914 -362.060852 -0.783630 43.111408 -113.013756 499.952881
47 -153.359680 -308.780914 -362.060852 -0.521410 40.000328 -112.926781 499.952881
48 -153.359680 -308.780914 -362.060852 -0.675365 43.914013 -113.265434 499.952881
[planeLockWeightCenter]
46 1000.000488 0.000679 -0.000087 -0.011814 -0.004373 -0.000015 1000.000488
47 1000.000488 0.000687 -0.000086 -0.011814 -0.004373 -0.000015 1000.000488
48 740.746033 0.000305 -0.000181 -0.011814 -0.004373 -0.000015 740.746033
[Rear_Toe1_02]
46 379.707825 0.194073 0.000477 -0.006679 -31.240036 -0.006679 379.707855
47 379.707825 0.194073 0.000477 -0.006693 -30.811663 -0.006693 379.707855
48 379.707825 0.194073 0.000477 -0.006707 -30.383297 -0.006707 379.707855
[Rear_Toe1_03]
46 500.129700 0.165701 0.000119 -179.992752 77.993683 -179.996262 500.129761
47 500.129700 0.165701 0.000119 -179.993942 74.616119 -179.997467 500.129761
48 500.129700 0.165701 0.000119 -179.994400 72.731323 -179.997940 500.129761
[Rear_Toe2_02]
46 340.494507 0.000238 -0.000954 0.001196 -67.887840 0.001196 340.494507
47 340.494507 0.000238 -0.000954 0.001212 -61.069008 0.001212 340.494507
48 340.494507 0.000238 -0.000954 0.001197 -67.138023 0.001197 340.494507
[Rear_Toe2_03]
46 433.103577 0.000000 0.000238 0.005854 66.869591 0.005854 433.103546
47 433.103577 0.000000 0.000238 0.004193 57.493557 0.004193 433.103546
48 433.103577 0.000000 0.000238 0.005588 65.752617 0.005588 433.103546
[Rear_Toe3_02]
46 340.494141 -0.000358 -0.000477 -0.002408 -59.445187 -0.002408 340.494171
47 340.494141 -0.000358 -0.000477 -0.002482 -48.794964 -0.002482 340.494171
48 340.494141 -0.000358 -0.000477 -0.002422 -57.151241 -0.002422 340.494171
[Rear_Toe3_03]
46 433.103577 0.001431 -0.000238 -0.000101 55.394482 -0.003763 433.103546
47 433.103577 0.001431 -0.000238 0.000464 43.034798 -0.003349 433.103546
48 433.103577 0.001431 -0.000238 0.000053 52.596363 -0.003638 433.103546
[Back_Bone]
46 1312.175781 -701.934692 0.000954 0.999315 2.807510 -82.981758 1488.125488
47 1312.175781 -701.934692 0.000954 1.411460 2.244724 -84.548340 1488.125488
48 1312.175781 -701.934692 0.000954 1.838704 1.693413 -86.118431 1488.125488
[Head]
46 1406.159424 809.709290 0.001431 1.911343 1.020792 5.626667 1622.625488
47 1406.159424 809.709290 0.001431 1.777544 0.934072 5.818392 1622.625488
48 1406.159424 809.709290 0.001431 1.643459 0.847801 6.010313 1622.625488
[Motor_Bone]
46 1158.364380 -417.834747 0.000477 -2.068580 -0.853146 -106.841263 1231.419434
47 1158.364380 -417.834747 0.000477 -2.008335 -0.793624 -106.782280 1231.419434
48 1158.364380 -417.834747 0.000477 -1.948029 -0.734163 -106.723206 1231.419434
[Ping_Mechanism]
46 1306.856323 -472.045227 -35.149548 0.000103 -0.000053 82.120995 1389.940796
47 1312.423584 -470.349762 -32.522728 0.000103 -0.000053 82.120995 1394.540161
48 1317.990845 -468.654175 -29.895908 0.000103 -0.000053 82.120995 1399.153442
[BN_LookIK]
46 193.241119 1380.371704 -0.002861 0.000000 89.965736 -31.038179 1393.832153
47 193.241119 1380.371704 -0.002861 0.000000 89.965736 -31.038179 1393.832153
48 193.241119 1380.371704 -0.002861 0.000000 89.965736 -31.038179 1393.832153
[bottomMouth]
46 -435.092926 615.759399 -0.000954 -0.000022 0.000016 73.527184 753.966492
47 -435.092926 615.759399 -0.000954 -0.000022 0.000016 73.527184 753.966492
48 -435.092926 615.759399 -0.000954 -0.000022 0.000016 73.527184 753.966492
[L_Mouth01]
46 554.440979 7.658243 838.222046 150.204178 23.759130 109.605339 1005.027161
47 554.440979 7.658243 838.222046 150.204178 23.759130 109.605339 1005.027161
48 554.440979 7.658243 838.222046 150.204178 23.759130 109.605339 1005.027161
[L_mouthFront]
46 551.629089 934.514771 339.150421 0.000081 2.804060 79.119301 1136.941284
47 551.629089 934.514771 339.150421 0.000081 2.804060 79.119301 1136.941284
48 551.629089 934.514771 339.150421 0.000081 2.804060 79.119301 1136.941284
[mouthGun]
46 55.332661 1627.420898 0.000000 0.000023 0.000009 -11.038128 1628.361328
47 55.332661 1627.420898 0.000000 0.000023 0.000009 -11.038128 1628.361328
48 55.332661 1627.420898 0.000000 0.000023 0.000009 -11.038128 1628.361328
[R_Mouth01]
46 554.442383 7.659197 -838.223938 29.795891 -23.759109 109.605331 1005.029541
47 554.442383 7.659197 -838.223938 29.795891 -23.759109 109.605331 1005.029541
48 554.442383 7.659197 -838.223938 29.795891 -23.759109 109.605331 1005.029541
[R_mouthFront]
46 551.629089 934.514282 -339.151367 0.000029 -2.803930 79.119133 1136.941162
47 551.629089 934.514282 -339.151367 0.000029 -2.803930 79.119133 1136.941162
48 551.629089 934.514282 -339.151367 0.000029 -2.803930 79.119133 1136.941162
[TopMouth]
46 461.269867 -56.106091 -0.008583 -0.000059 -0.000268 92.025169 464.669525
47 461.269867 -56.106091 -0.008583 -0.000059 -0.000268 92.025169 464.669525
48 461.269867 -56.106091 -0.008583 -0.000059 -0.000268 92.025169 464.669525
[weapon_bone]
46 -987.239868 1448.372803 0.001431 0.000000 89.965736 -31.038221 1752.833740
47 -987.239868 1448.372803 0.001431 0.000000 89.965736 -31.038221 1752.833740
48 -987.239868 1448.372803 0.001431 0.000000 89.965736 -31.038221 1752.833740
